<?xml version="1.0" encoding="utf-8"?>
<!-- Generator: Adobe Illustrator 23.0.2, SVG Export Plug-In . SVG Version: 6.00 Build 0)  -->
<svg version="1.1" id="레이어_1" xmlns="http://www.w3.org/2000/svg" xmlns:xlink="http://www.w3.org/1999/xlink" x="0px"
	 y="0px" viewBox="0 0 100.8 19.8" style="enable-background:new 0 0 100.8 19.8;" xml:space="preserve">
<style type="text/css">
	.st0{enable-background:new    ;}
	.st1{fill:#414671;}
</style>
<g class="st0">
	<path class="st1" d="M37.3,19.4H25.3v-0.6c0.9,0,1.5-0.1,1.6-0.4c0.2-0.3,0.3-1,0.3-2.1l0-1.8V6.3l0-1.6c0-1.1-0.1-2-0.4-2.5
		c-0.3-0.5-0.8-0.8-1.5-0.8c-0.5,0-1,0.2-1.5,0.7c-0.5,0.4-0.9,1.3-1.1,2.6v9.7l0,1.8c0,0.9,0,1.5,0.1,1.8c0.1,0.4,0.6,0.6,1.5,0.7
		v0.6H13v-0.6c0.9,0,1.4-0.1,1.6-0.4c0.2-0.3,0.3-1,0.3-2.1l0-1.8V6.3l0-1.6c0-1.1-0.1-2-0.4-2.5c-0.3-0.5-0.8-0.8-1.5-0.8
		c-0.9,0-1.5,0.3-1.8,0.9c-0.3,0.6-0.6,1.2-0.8,1.8v10.3l0,1.8c0,0.9,0,1.5,0.1,1.8c0.1,0.4,0.6,0.6,1.5,0.7v0.6h-12v-0.6l0.9,0
		c0.8-0.1,1.2-0.3,1.4-0.6c0.2-0.3,0.2-0.9,0.2-1.9l0-1.8V4.8l0-1.6C2.5,2.5,2.5,2,2.4,1.7C2.3,1.4,1.8,1.2,0.9,1.1L0,1V0.4h10.2v3
		c0.2-0.7,0.7-1.5,1.4-2.3C12.3,0.4,13.8,0,15.9,0c1.5,0,2.8,0.3,3.9,0.9c1.1,0.6,1.9,1.6,2.5,2.8c0.1-0.5,0.5-1.2,1.1-2.2
		c0.6-1,2.2-1.5,4.9-1.5c1.8,0,3.4,0.5,4.7,1.5s2,2.3,2,3.9v8.9l0,1.8c0,1,0.1,1.7,0.2,1.9c0.1,0.3,0.6,0.5,1.4,0.6l0.7,0V19.4z"/>
	<path class="st1" d="M57.9,17.4c0.6,0,1.1-0.4,1.3-1.2s0.4-1.7,0.4-2.8h0.6c0,2.4-0.4,3.9-1.3,4.7c-0.8,0.7-1.6,1.2-2.3,1.4
		c-0.7,0.2-1.5,0.3-2.6,0.3c-1.1,0-2.2-0.3-3.1-0.9c-0.9-0.6-1.4-1.4-1.6-2.4c-0.4,1.1-1.1,1.9-2.1,2.4c-1,0.5-2.3,0.8-3.9,0.8
		c-1.7,0-3.1-0.5-4.2-1.4c-1.1-0.9-1.6-2.2-1.6-3.9c0-1.3,0.3-2.4,1-3.2c0.7-0.8,1.3-1.3,2-1.5c0.7-0.2,1.8-0.3,3.2-0.5
		S46.3,9,47,8.8c0.7-0.2,1.2-0.4,1.5-0.6s0.4-0.5,0.4-1l0-3.6c0-1-0.1-1.8-0.4-2.2s-0.8-0.7-1.7-0.7c-0.5,0-1,0.1-1.3,0.4
		C45.1,1.2,45,1.6,45,1.9c0,0.3,0.3,0.7,0.9,1.1c0.6,0.4,0.9,1.1,0.9,2c0,0.8-0.4,1.6-1.1,2.2c-0.7,0.6-1.9,1-3.6,1
		c-0.9,0-1.7-0.2-2.4-0.7c-0.7-0.5-1-1.2-1-2c0-1.7,0.9-3,2.8-4C43.2,0.5,45.4,0,48,0c2.2,0,4.2,0.4,6,1.3c1.8,0.9,2.7,2.3,2.7,4.2
		v9.2c0,0.9,0.1,1.5,0.2,2C57,17.2,57.4,17.4,57.9,17.4z M48.9,16.2V8.6l-0.1,0c-0.2,0.3-0.7,0.6-1.3,0.9c-0.6,0.3-1.1,0.6-1.3,0.8
		c-0.3,0.3-0.4,0.8-0.6,1.5s-0.2,1.5-0.2,2.3c0,1.2,0.1,2.2,0.3,2.9c0.2,0.7,0.6,1.1,1.3,1.1c0.5,0,0.9-0.2,1.3-0.6
		C48.6,17.1,48.8,16.7,48.9,16.2z"/>
	<path class="st1" d="M59.2,19.4v-0.6l1.1,0c0.8-0.1,1.2-0.3,1.4-0.6c0.2-0.3,0.2-0.9,0.2-1.9l0-1.8V4.8l0-1.6
		c-0.1-0.6-0.1-1.1-0.2-1.4c-0.1-0.3-0.6-0.5-1.4-0.6l-1-0.1V0.4h10.4v3.4c0.2-0.5,0.6-1.2,1.2-2.2s2-1.4,4.2-1.4
		c1.3,0,2.4,0.4,3.3,1.3c0.9,0.9,1.3,2,1.3,3.2s-0.4,2.2-1.3,3.1S76.4,9,75.2,9c-1,0-1.9-0.4-2.6-1.1c-0.7-0.7-1.1-1.5-1.1-2.4
		c0-0.7,0.1-1.3,0.4-1.8c0.3-0.5,0.5-1,0.8-1.6c-0.1-0.2-0.3-0.3-0.4-0.3c-0.7,0-1.3,0.4-1.8,1.2c-0.5,0.8-0.8,1.6-0.8,2.3v9.2l0,2
		c0,0.7,0.1,1.3,0.3,1.5c0.2,0.3,0.6,0.4,1.4,0.5l1.2,0.1v0.6H59.2z"/>
	<path class="st1" d="M100.8,9.9c0,2.8-1.1,5.2-3.2,7.1s-4.7,2.8-7.6,2.8c-3.1,0-5.6-0.9-7.7-2.8c-2.1-1.9-3.1-4.2-3.1-7.1
		c0-2.8,1-5.2,3.1-7.1S87,0,90,0c3,0,5.5,0.9,7.6,2.8S100.8,7,100.8,9.9z M92.9,9.8c0-0.4,0-1.1-0.1-2.2s-0.1-1.8-0.1-2
		c0-1.4-0.2-2.6-0.7-3.6c-0.4-0.9-1.1-1.4-2.1-1.4c-0.9,0-1.5,0.5-2,1.5s-0.7,2.1-0.7,3.5c0,0.5,0,1.1-0.1,1.9
		c0,0.7-0.1,1.5-0.1,2.4c0,0.4,0,1.1,0.1,2.3c0.1,1.2,0.1,1.8,0.1,2c0,1.4,0.2,2.6,0.7,3.6c0.4,0.9,1.1,1.4,2,1.4
		c0.9,0,1.5-0.5,2-1.4s0.7-2.1,0.7-3.5c0-0.5,0-1.2,0-1.9C92.8,11.5,92.8,10.7,92.9,9.8z"/>
</g>
</svg>
